<svg width="28" height="26" viewBox="0 0 28 26" fill="none" xmlns="http://www.w3.org/2000/svg">
<path d="M24.8 9.2926C22.3866 9.2926 21.4 7.58593 22.6 5.4926C23.2933 4.27926 22.88 2.7326 21.6666 2.03926L19.36 0.719264C18.3066 0.0925975 16.9466 0.465931 16.32 1.51926L16.1733 1.7726C14.9733 3.86593 13 3.86593 11.7866 1.7726L11.64 1.51926C11.04 0.465931 9.67996 0.0925975 8.62663 0.719264L6.31996 2.03926C5.10663 2.7326 4.69329 4.2926 5.38663 5.50593C6.59996 7.58593 5.61329 9.2926 3.19996 9.2926C1.81329 9.2926 0.666626 10.4259 0.666626 11.8259V14.1726C0.666626 15.5593 1.79996 16.7059 3.19996 16.7059C5.61329 16.7059 6.59996 18.4126 5.38663 20.5059C4.69329 21.7193 5.10663 23.2659 6.31996 23.9593L8.62663 25.2793C9.67996 25.9059 11.04 25.5326 11.6666 24.4793L11.8133 24.2259C13.0133 22.1326 14.9866 22.1326 16.2 24.2259L16.3466 24.4793C16.9733 25.5326 18.3333 25.9059 19.3866 25.2793L21.6933 23.9593C22.9066 23.2659 23.32 21.7059 22.6266 20.5059C21.4133 18.4126 22.4 16.7059 24.8133 16.7059C26.2 16.7059 27.3466 15.5726 27.3466 14.1726V11.8259C27.3333 10.4393 26.2 9.2926 24.8 9.2926ZM14 17.3326C11.6133 17.3326 9.66663 15.3859 9.66663 12.9993C9.66663 10.6126 11.6133 8.66593 14 8.66593C16.3866 8.66593 18.3333 10.6126 18.3333 12.9993C18.3333 15.3859 16.3866 17.3326 14 17.3326Z" fill="#242423"/>
</svg>
