<svg width="485" height="386" viewBox="0 0 485 386" fill="none" xmlns="http://www.w3.org/2000/svg">
<path d="M284.03 140.878C254.064 141.057 223.632 139.662 195.167 131.753C166.702 123.845 141.527 108.923 118.641 91.4963C103.657 80.1527 90.033 71.1351 70.5796 72.4949C51.559 73.4952 33.3656 80.5969 18.692 92.7487C-6.05381 114.434 -2.29902 154.512 7.5707 182.71C22.4468 225.186 67.7188 254.672 106.161 273.888C150.61 296.11 199.422 309.028 248.378 316.436C291.29 322.948 346.396 327.708 383.55 299.653C417.701 273.924 427.07 215.095 418.702 175.374C416.666 163.643 410.423 153.057 401.144 145.602C377.149 128.068 341.389 139.769 314.426 140.377C304.592 140.592 294.258 140.843 284.03 140.878Z" fill="#F8F8F8"/>
<path d="M137.913 2V17.3872" stroke="#E6E6E6" stroke-width="3.03959" stroke-linecap="round" stroke-linejoin="round"/>
<path d="M130.227 9.6936H145.604" stroke="#E6E6E6" stroke-width="3.03959" stroke-linecap="round" stroke-linejoin="round"/>
<path d="M429.643 308.706V324.093" stroke="#E6E6E6" stroke-width="3.03959" stroke-linecap="round" stroke-linejoin="round"/>
<path d="M421.957 316.4H437.333" stroke="#E6E6E6" stroke-width="3.03959" stroke-linecap="round" stroke-linejoin="round"/>
<path d="M23.4465 238.748C23.4465 239.699 22.6769 240.467 21.7301 240.467C20.7832 240.467 20.0136 239.699 20.0136 238.748C20.0136 237.798 20.7832 237.03 21.7301 237.03C22.6769 237.03 23.4465 237.798 23.4465 238.748Z" stroke="#E6E6E6" stroke-width="3.57599"/>
<path d="M321.829 14.3812C321.829 15.3317 321.059 16.1001 320.112 16.1001C319.166 16.1001 318.396 15.3317 318.396 14.3812C318.396 13.4308 319.166 12.6624 320.112 12.6624C321.059 12.6624 321.829 13.4308 321.829 14.3812Z" stroke="#E6E6E6" stroke-width="3.57599"/>
<path d="M222.987 386C295.468 386 354.226 382.347 354.226 377.841C354.226 373.335 295.468 369.682 222.987 369.682C150.506 369.682 91.748 373.335 91.748 377.841C91.748 382.347 150.506 386 222.987 386Z" fill="#F8F8F8"/>
<path d="M121.894 43.7963H312.494C317.236 43.7963 321.784 45.6813 325.137 49.0367C328.49 52.3922 330.374 56.9431 330.374 61.6884V288.596C330.374 293.341 328.49 297.892 325.137 301.247C321.784 304.603 317.236 306.488 312.494 306.488H97.4698C92.7277 306.488 88.1799 304.603 84.8268 301.247C81.4736 297.892 79.5898 293.341 79.5898 288.596V86.5584L121.894 43.7963Z" fill="#FFFFFC" stroke="#E6E6E6" stroke-width="3.57599" stroke-linecap="round" stroke-linejoin="round"/>
<path d="M329.515 154.369H132.979V308.671H329.515V154.369Z" fill="#C7C7C7"/>
<path d="M79.5898 86.5584H114.241C116.274 86.5489 118.22 85.7341 119.655 84.2923C121.089 82.8505 121.894 80.899 121.894 78.8648V43.7963L79.5898 86.5584Z" fill="#FFFFFC" stroke="#E6E6E6" stroke-width="3.57599" stroke-linecap="round" stroke-linejoin="round"/>
<path d="M328.55 105.094H134.159C126.595 105.094 120.463 111.231 120.463 118.8V160.417C120.463 167.986 126.595 174.122 134.159 174.122H328.55C336.114 174.122 342.246 167.986 342.246 160.417V118.8C342.246 111.231 336.114 105.094 328.55 105.094Z" fill="#FFFFFC" stroke="#E6E6E6" stroke-width="3.57599" stroke-linecap="round" stroke-linejoin="round"/>
<path d="M158.226 151.65C164.822 151.65 170.17 146.299 170.17 139.698C170.17 133.097 164.822 127.746 158.226 127.746C151.63 127.746 146.282 133.097 146.282 139.698C146.282 146.299 151.63 151.65 158.226 151.65Z" fill="#E6E6E6"/>
<path d="M195.773 151.65C202.37 151.65 207.717 146.299 207.717 139.698C207.717 133.097 202.37 127.746 195.773 127.746C189.177 127.746 183.83 133.097 183.83 139.698C183.83 146.299 189.177 151.65 195.773 151.65Z" fill="#E6E6E6"/>
<path d="M233.285 151.65C239.881 151.65 245.229 146.299 245.229 139.698C245.229 133.097 239.881 127.746 233.285 127.746C226.689 127.746 221.341 133.097 221.341 139.698C221.341 146.299 226.689 151.65 233.285 151.65Z" fill="#E6E6E6"/>
<path d="M328.55 181.601H134.159C126.595 181.601 120.463 187.737 120.463 195.306V236.923C120.463 244.493 126.595 250.629 134.159 250.629H328.55C336.114 250.629 342.246 244.493 342.246 236.923V195.306C342.246 187.737 336.114 181.601 328.55 181.601Z" fill="#FFFFFC" stroke="#E6E6E6" stroke-width="3.57599" stroke-linecap="round" stroke-linejoin="round"/>
<path d="M158.226 228.192C164.822 228.192 170.17 222.841 170.17 216.24C170.17 209.639 164.822 204.288 158.226 204.288C151.63 204.288 146.282 209.639 146.282 216.24C146.282 222.841 151.63 228.192 158.226 228.192Z" fill="#E6E6E6"/>
<path d="M195.773 228.192C202.37 228.192 207.717 222.841 207.717 216.24C207.717 209.639 202.37 204.288 195.773 204.288C189.177 204.288 183.83 209.639 183.83 216.24C183.83 222.841 189.177 228.192 195.773 228.192Z" fill="#E6E6E6"/>
<path d="M233.285 228.192C239.881 228.192 245.229 222.841 245.229 216.24C245.229 209.639 239.881 204.288 233.285 204.288C226.689 204.288 221.341 209.639 221.341 216.24C221.341 222.841 226.689 228.192 233.285 228.192Z" fill="#E6E6E6"/>
<path d="M328.55 258.144H134.159C126.595 258.144 120.463 264.28 120.463 271.849V313.466C120.463 321.035 126.595 327.171 134.159 327.171H328.55C336.114 327.171 342.246 321.035 342.246 313.466V271.849C342.246 264.28 336.114 258.144 328.55 258.144Z" fill="#FFFFFC" stroke="#E6E6E6" stroke-width="3.57599" stroke-linecap="round" stroke-linejoin="round"/>
<path d="M158.226 304.699C164.822 304.699 170.17 299.347 170.17 292.747C170.17 286.146 164.822 280.795 158.226 280.795C151.63 280.795 146.282 286.146 146.282 292.747C146.282 299.347 151.63 304.699 158.226 304.699Z" fill="#E6E6E6"/>
<path d="M195.773 304.699C202.37 304.699 207.717 299.347 207.717 292.747C207.717 286.146 202.37 280.795 195.773 280.795C189.177 280.795 183.83 286.146 183.83 292.747C183.83 299.347 189.177 304.699 195.773 304.699Z" fill="#E6E6E6"/>
<path d="M233.285 304.699C239.881 304.699 245.229 299.347 245.229 292.747C245.229 286.146 239.881 280.795 233.285 280.795C226.689 280.795 221.341 286.146 221.341 292.747C221.341 299.347 226.689 304.699 233.285 304.699Z" fill="#E6E6E6"/>
<path d="M346.143 192.264C387.084 192.264 420.273 159.053 420.273 118.084C420.273 77.115 387.084 43.9032 346.143 43.9032C305.202 43.9032 272.013 77.115 272.013 118.084C272.013 159.053 305.202 192.264 346.143 192.264Z" fill="#FFFFFC" stroke="#E6E6E6" stroke-width="3.57599" stroke-linecap="round" stroke-linejoin="round"/>
<path d="M317.5 138V131.474H300.6V126.326L312.768 100.56H318.982L306.814 126.326H317.5V116.186H323.012V126.326H326.73V131.474H323.012V138H317.5Z" fill="#BBED21"/>
<path d="M346.024 138.78C343.476 138.78 341.223 138.225 339.264 137.116C337.305 135.989 335.763 134.447 334.636 132.488C333.527 130.529 332.972 128.276 332.972 125.728V112.832C332.972 110.284 333.527 108.031 334.636 106.072C335.763 104.113 337.305 102.579 339.264 101.47C341.223 100.343 343.476 99.78 346.024 99.78C348.572 99.78 350.825 100.343 352.784 101.47C354.743 102.579 356.277 104.113 357.386 106.072C358.513 108.031 359.076 110.284 359.076 112.832V125.728C359.076 128.276 358.513 130.529 357.386 132.488C356.277 134.447 354.743 135.989 352.784 137.116C350.825 138.225 348.572 138.78 346.024 138.78ZM346.024 133.58C347.411 133.58 348.667 133.251 349.794 132.592C350.938 131.916 351.848 131.015 352.524 129.888C353.2 128.744 353.538 127.47 353.538 126.066V112.442C353.538 111.055 353.2 109.799 352.524 108.672C351.848 107.528 350.938 106.627 349.794 105.968C348.667 105.292 347.411 104.954 346.024 104.954C344.637 104.954 343.372 105.292 342.228 105.968C341.101 106.627 340.2 107.528 339.524 108.672C338.848 109.799 338.51 111.055 338.51 112.442V126.066C338.51 127.47 338.848 128.744 339.524 129.888C340.2 131.015 341.101 131.916 342.228 132.592C343.372 133.251 344.637 133.58 346.024 133.58Z" fill="#BBED21"/>
<path d="M382.195 138V131.474H365.295V126.326L377.463 100.56H383.677L371.509 126.326H382.195V116.186H387.707V126.326H391.425V131.474H387.707V138H382.195Z" fill="#BBED21"/>
<path d="M398.782 171.903L418.522 191.656" stroke="#E6E6E6" stroke-width="3.57599" stroke-linecap="round" stroke-linejoin="round"/>
<path d="M416.316 182.067L410.188 188.482C407.432 191.367 407.535 195.943 410.418 198.701L463.667 249.639C466.551 252.398 471.123 252.295 473.88 249.409L480.008 242.994C482.765 240.109 482.662 235.533 479.778 232.775L426.529 181.837C423.646 179.078 419.073 179.181 416.316 182.067Z" fill="#FFFFFC" stroke="#E6E6E6" stroke-width="3.57599" stroke-linecap="round" stroke-linejoin="round"/>
</svg>
